<mxfile host="app.diagrams.net" agent="Mozilla/5.0 (Windows NT 10.0; Win64; x64) AppleWebKit/537.36 (KHTML, like Gecko) Chrome/130.0.0.0 Safari/537.36" version="24.8.6">
  <diagram name="Сторінка-1" id="G_CZQJDcpKWANJT1b7nP">
    <mxGraphModel grid="1" page="1" gridSize="10" guides="1" tooltips="1" connect="1" arrows="1" fold="1" pageScale="1" pageWidth="827" pageHeight="1169" math="0" shadow="0">
      <root>
        <mxCell id="0" />
        <mxCell id="1" parent="0" />
        <mxCell id="Ljxp4W1NeqF9-F72vJyX-3" value="" style="edgeStyle=orthogonalEdgeStyle;rounded=0;orthogonalLoop=1;jettySize=auto;html=1;" edge="1" parent="1" source="Ljxp4W1NeqF9-F72vJyX-1">
          <mxGeometry relative="1" as="geometry">
            <mxPoint x="410" y="140" as="targetPoint" />
          </mxGeometry>
        </mxCell>
        <mxCell id="Ljxp4W1NeqF9-F72vJyX-1" value="&lt;font style=&quot;font-size: 18px;&quot;&gt;Start&lt;/font&gt;" style="ellipse;whiteSpace=wrap;html=1;" vertex="1" parent="1">
          <mxGeometry x="350" y="20" width="120" height="80" as="geometry" />
        </mxCell>
        <mxCell id="Ljxp4W1NeqF9-F72vJyX-6" value="" style="edgeStyle=orthogonalEdgeStyle;rounded=0;orthogonalLoop=1;jettySize=auto;html=1;" edge="1" parent="1" source="Ljxp4W1NeqF9-F72vJyX-4" target="Ljxp4W1NeqF9-F72vJyX-5">
          <mxGeometry relative="1" as="geometry" />
        </mxCell>
        <mxCell id="Ljxp4W1NeqF9-F72vJyX-4" value="&lt;font style=&quot;font-size: 18px;&quot;&gt;і = 1, 10&lt;/font&gt;" style="shape=hexagon;perimeter=hexagonPerimeter2;whiteSpace=wrap;html=1;fixedSize=1;" vertex="1" parent="1">
          <mxGeometry x="355" y="140" width="110" height="73.33" as="geometry" />
        </mxCell>
        <mxCell id="Ljxp4W1NeqF9-F72vJyX-9" value="" style="edgeStyle=orthogonalEdgeStyle;rounded=0;orthogonalLoop=1;jettySize=auto;html=1;" edge="1" parent="1" source="Ljxp4W1NeqF9-F72vJyX-5" target="Ljxp4W1NeqF9-F72vJyX-8">
          <mxGeometry relative="1" as="geometry" />
        </mxCell>
        <mxCell id="Ljxp4W1NeqF9-F72vJyX-14" value="" style="edgeStyle=orthogonalEdgeStyle;rounded=0;orthogonalLoop=1;jettySize=auto;html=1;" edge="1" parent="1" source="Ljxp4W1NeqF9-F72vJyX-5" target="Ljxp4W1NeqF9-F72vJyX-13">
          <mxGeometry relative="1" as="geometry" />
        </mxCell>
        <mxCell id="Ljxp4W1NeqF9-F72vJyX-5" value="&lt;font style=&quot;font-size: 14px;&quot;&gt;i % 2 == 0 ?&lt;/font&gt;" style="rhombus;whiteSpace=wrap;html=1;" vertex="1" parent="1">
          <mxGeometry x="355" y="260" width="110" height="80" as="geometry" />
        </mxCell>
        <mxCell id="Ljxp4W1NeqF9-F72vJyX-8" value="&lt;font style=&quot;font-size: 14px;&quot;&gt;continue&lt;/font&gt;" style="ellipse;whiteSpace=wrap;html=1;" vertex="1" parent="1">
          <mxGeometry x="520" y="270" width="90" height="60" as="geometry" />
        </mxCell>
        <mxCell id="Ljxp4W1NeqF9-F72vJyX-12" value="&lt;font style=&quot;font-size: 14px;&quot;&gt;YES&lt;/font&gt;" style="text;strokeColor=none;align=center;fillColor=none;html=1;verticalAlign=middle;whiteSpace=wrap;rounded=0;" vertex="1" parent="1">
          <mxGeometry x="460" y="270" width="60" height="30" as="geometry" />
        </mxCell>
        <mxCell id="Ljxp4W1NeqF9-F72vJyX-13" value="&lt;font style=&quot;font-size: 14px;&quot;&gt;Виведення числа в квадраті&lt;/font&gt;" style="shape=parallelogram;perimeter=parallelogramPerimeter;whiteSpace=wrap;html=1;fixedSize=1;" vertex="1" parent="1">
          <mxGeometry x="140" y="270" width="180" height="60" as="geometry" />
        </mxCell>
        <mxCell id="Ljxp4W1NeqF9-F72vJyX-15" value="&lt;font style=&quot;font-size: 14px;&quot;&gt;NO&lt;/font&gt;" style="text;strokeColor=none;align=center;fillColor=none;html=1;verticalAlign=middle;whiteSpace=wrap;rounded=0;" vertex="1" parent="1">
          <mxGeometry x="310" y="270" width="60" height="30" as="geometry" />
        </mxCell>
        <mxCell id="Ljxp4W1NeqF9-F72vJyX-18" value="" style="endArrow=none;html=1;rounded=0;entryX=0.5;entryY=0;entryDx=0;entryDy=0;" edge="1" parent="1" target="Ljxp4W1NeqF9-F72vJyX-13">
          <mxGeometry width="50" height="50" relative="1" as="geometry">
            <mxPoint x="230" y="170" as="sourcePoint" />
            <mxPoint x="440" y="260" as="targetPoint" />
          </mxGeometry>
        </mxCell>
        <mxCell id="Ljxp4W1NeqF9-F72vJyX-19" value="" style="endArrow=classic;html=1;rounded=0;entryX=0.014;entryY=0.426;entryDx=0;entryDy=0;entryPerimeter=0;" edge="1" parent="1" target="Ljxp4W1NeqF9-F72vJyX-4">
          <mxGeometry width="50" height="50" relative="1" as="geometry">
            <mxPoint x="230" y="170" as="sourcePoint" />
            <mxPoint x="440" y="260" as="targetPoint" />
          </mxGeometry>
        </mxCell>
        <mxCell id="Ljxp4W1NeqF9-F72vJyX-20" value="" style="endArrow=none;html=1;rounded=0;" edge="1" parent="1">
          <mxGeometry width="50" height="50" relative="1" as="geometry">
            <mxPoint x="570" y="269" as="sourcePoint" />
            <mxPoint x="570" y="170" as="targetPoint" />
          </mxGeometry>
        </mxCell>
        <mxCell id="Ljxp4W1NeqF9-F72vJyX-21" value="" style="endArrow=classic;html=1;rounded=0;entryX=0.963;entryY=0.393;entryDx=0;entryDy=0;entryPerimeter=0;" edge="1" parent="1" target="Ljxp4W1NeqF9-F72vJyX-4">
          <mxGeometry width="50" height="50" relative="1" as="geometry">
            <mxPoint x="570" y="170" as="sourcePoint" />
            <mxPoint x="370" y="250" as="targetPoint" />
          </mxGeometry>
        </mxCell>
        <mxCell id="Ljxp4W1NeqF9-F72vJyX-23" value="" style="endArrow=classic;html=1;rounded=0;exitX=0.849;exitY=0.074;exitDx=0;exitDy=0;exitPerimeter=0;" edge="1" parent="1" source="Ljxp4W1NeqF9-F72vJyX-4">
          <mxGeometry width="50" height="50" relative="1" as="geometry">
            <mxPoint x="360" y="280" as="sourcePoint" />
            <mxPoint x="640" y="140" as="targetPoint" />
            <Array as="points">
              <mxPoint x="470" y="140" />
            </Array>
          </mxGeometry>
        </mxCell>
        <mxCell id="Ljxp4W1NeqF9-F72vJyX-24" value="&lt;font style=&quot;font-size: 18px;&quot;&gt;End&lt;/font&gt;" style="ellipse;whiteSpace=wrap;html=1;" vertex="1" parent="1">
          <mxGeometry x="640" y="100" width="120" height="80" as="geometry" />
        </mxCell>
      </root>
    </mxGraphModel>
  </diagram>
</mxfile>
